<svg xmlns="http://www.w3.org/2000/svg" id="canvas" viewBox="141.084 417.839 658.954 89.021"><path d="M 152.04,430.46 C 151.92 430.71, 152.00 430.89, 151.97 431.58 C 151.95 432.27, 151.92 432.69, 151.89 433.90 C 151.86 435.10, 151.91 435.91, 151.81 437.59 C 151.70 439.28, 151.57 440.32, 151.36 442.31 C 151.15 444.31, 151.03 445.47, 150.76 447.57 C 150.50 449.66, 150.34 450.78, 150.05 452.81 C 149.77 454.83, 149.60 455.90, 149.33 457.69 C 149.05 459.48, 148.90 460.35, 148.68 461.76 C 148.45 463.16, 148.36 463.74, 148.20 464.70 C 148.04 465.66, 147.92 466.15, 147.87 466.56 C 147.82 466.98, 147.99 466.94, 147.96 466.76 C 147.94 466.57, 147.93 466.35, 147.75 465.64 C 147.57 464.93, 147.37 464.41, 147.06 463.21 C 146.75 462.00, 146.47 461.25, 146.20 459.60 C 145.93 457.95, 145.79 456.99, 145.71 454.97 C 145.63 452.95, 145.58 451.80, 145.80 449.49 C 146.01 447.19, 146.22 445.88, 146.78 443.46 C 147.35 441.04, 147.80 439.70, 148.61 437.39 C 149.42 435.09, 149.93 433.91, 150.85 431.94 C 151.77 429.96, 152.28 429.03, 153.22 427.51 C 154.15 426.00, 154.64 425.34, 155.53 424.35 C 156.43 423.37, 156.84 423.06, 157.71 422.60 C 158.59 422.13, 159.00 422.06, 159.92 422.03 C 160.83 422.01, 161.28 422.15, 162.28 422.45 C 163.28 422.76, 163.80 423.04, 164.91 423.56 C 166.01 424.09, 166.73 424.41, 167.81 425.10 C 168.90 425.78, 169.51 426.21, 170.35 426.99 C 171.20 427.76, 171.56 428.16, 172.04 428.97 C 172.52 429.79, 172.70 430.26, 172.75 431.06 C 172.80 431.86, 172.70 432.19, 172.30 432.97 C 171.90 433.76, 171.51 434.18, 170.77 434.98 C 170.03 435.78, 169.48 436.25, 168.60 436.98 C 167.72 437.71, 167.19 438.18, 166.37 438.64 C 165.55 439.10, 165.19 439.12, 164.51 439.30 C 163.82 439.47, 163.44 439.51, 162.94 439.51 C 162.44 439.50, 162.33 439.34, 162.01 439.28 C 161.70 439.21, 161.53 439.12, 161.36 439.17 C 161.19 439.22, 161.10 439.32, 161.16 439.51 C 161.21 439.69, 161.31 439.86, 161.64 440.09 C 161.98 440.32, 162.23 440.57, 162.85 440.65 C 163.48 440.74, 163.94 440.66, 164.77 440.50 C 165.60 440.35, 166.04 440.34, 167.01 439.89 C 167.98 439.43, 168.64 439.01, 169.62 438.23 C 170.60 437.44, 171.14 436.91, 171.91 435.97 C 172.68 435.02, 173.07 434.50, 173.48 433.50 C 173.88 432.50, 174.00 432.01, 173.94 430.98 C 173.87 429.95, 173.68 429.36, 173.16 428.36 C 172.64 427.35, 172.25 426.87, 171.35 425.96 C 170.45 425.04, 169.82 424.54, 168.65 423.78 C 167.49 423.03, 166.74 422.71, 165.54 422.19 C 164.33 421.66, 163.76 421.42, 162.63 421.15 C 161.49 420.89, 160.93 420.78, 159.85 420.87 C 158.76 420.96, 158.24 421.09, 157.20 421.62 C 156.17 422.15, 155.69 422.50, 154.67 423.54 C 153.65 424.57, 153.13 425.25, 152.11 426.81 C 151.10 428.37, 150.56 429.32, 149.58 431.33 C 148.60 433.35, 148.07 434.54, 147.21 436.89 C 146.35 439.25, 145.88 440.62, 145.29 443.11 C 144.70 445.60, 144.49 446.96, 144.26 449.35 C 144.03 451.73, 144.07 452.92, 144.13 455.02 C 144.19 457.12, 144.30 458.12, 144.55 459.85 C 144.80 461.59, 144.98 462.42, 145.37 463.69 C 145.77 464.95, 146.07 465.50, 146.53 466.19 C 146.98 466.89, 147.25 467.03, 147.66 467.16 C 148.06 467.30, 148.22 467.32, 148.56 466.88 C 148.91 466.44, 149.10 465.95, 149.38 464.97 C 149.65 463.99, 149.69 463.39, 149.96 461.98 C 150.23 460.57, 150.41 459.70, 150.72 457.91 C 151.03 456.12, 151.20 455.05, 151.51 453.03 C 151.83 451.00, 152.00 449.88, 152.30 447.77 C 152.60 445.67, 152.76 444.51, 153.00 442.50 C 153.25 440.48, 153.43 439.43, 153.54 437.70 C 153.64 435.97, 153.61 435.12, 153.53 433.86 C 153.45 432.61, 153.34 432.14, 153.14 431.44 C 152.94 430.73, 152.76 430.54, 152.54 430.34 C 152.32 430.14, 152.15 430.21, 152.04 430.46" style="stroke: black; fill: black;"/><path d="M 184.76,448.90 C 184.51 449.06, 184.38 449.31, 183.98 449.92 C 183.58 450.53, 183.32 450.99, 182.75 451.95 C 182.18 452.90, 181.81 453.58, 181.12 454.71 C 180.42 455.84, 180.02 456.57, 179.29 457.57 C 178.56 458.58, 178.08 459.07, 177.48 459.74 C 176.89 460.42, 176.52 460.75, 176.32 460.95 C 176.13 461.15, 176.19 461.15, 176.52 460.74 C 176.85 460.32, 177.24 459.88, 177.98 458.89 C 178.73 457.90, 179.22 457.12, 180.26 455.79 C 181.30 454.46, 182.08 453.55, 183.19 452.24 C 184.30 450.92, 184.92 450.13, 185.81 449.22 C 186.69 448.30, 186.96 447.95, 187.60 447.64 C 188.25 447.32, 188.54 447.42, 189.02 447.64 C 189.49 447.87, 189.52 448.22, 189.97 448.78 C 190.43 449.34, 190.57 449.88, 191.27 450.46 C 191.98 451.03, 192.50 451.34, 193.49 451.65 C 194.49 451.96, 195.06 452.01, 196.25 452.01 C 197.43 452.02, 198.05 451.95, 199.43 451.68 C 200.82 451.41, 201.68 451.16, 203.18 450.66 C 204.69 450.17, 205.54 449.79, 206.97 449.22 C 208.40 448.65, 209.12 448.34, 210.34 447.82 C 211.55 447.30, 212.30 447.05, 213.05 446.62 C 213.80 446.20, 214.00 445.92, 214.10 445.71 C 214.20 445.50, 213.95 445.42, 213.55 445.57 C 213.15 445.73, 212.78 445.95, 212.09 446.51 C 211.40 447.07, 210.90 447.50, 210.08 448.37 C 209.26 449.25, 208.77 449.86, 207.98 450.89 C 207.19 451.92, 206.77 452.53, 206.14 453.54 C 205.51 454.55, 205.19 455.07, 204.84 455.96 C 204.48 456.85, 204.33 457.29, 204.37 457.98 C 204.41 458.67, 204.53 459.01, 205.02 459.43 C 205.50 459.84, 205.97 460.05, 206.80 460.06 C 207.64 460.07, 208.14 459.90, 209.18 459.49 C 210.23 459.08, 210.86 458.72, 212.05 458.00 C 213.24 457.28, 213.95 456.83, 215.14 455.89 C 216.33 454.94, 216.97 454.34, 218.02 453.26 C 219.06 452.18, 219.55 451.55, 220.34 450.50 C 221.14 449.45, 221.55 448.91, 221.98 448.00 C 222.42 447.09, 222.58 446.66, 222.50 445.97 C 222.43 445.27, 222.19 444.83, 221.63 444.50 C 221.07 444.18, 220.45 444.20, 219.72 444.32 C 218.99 444.45, 218.61 444.73, 217.99 445.14 C 217.37 445.55, 216.97 445.82, 216.60 446.37 C 216.23 446.92, 216.04 447.33, 216.14 447.88 C 216.24 448.43, 216.54 448.76, 217.09 449.12 C 217.65 449.48, 217.94 449.57, 218.91 449.67 C 219.88 449.77, 220.48 449.83, 221.92 449.61 C 223.37 449.39, 224.36 449.10, 226.12 448.57 C 227.88 448.03, 228.84 447.72, 230.72 446.92 C 232.60 446.12, 233.68 445.60, 235.52 444.58 C 237.36 443.56, 238.24 443.02, 239.91 441.82 C 241.58 440.63, 242.43 439.92, 243.88 438.61 C 245.33 437.29, 246.05 436.53, 247.14 435.23 C 248.24 433.94, 248.72 433.26, 249.37 432.12 C 250.02 430.99, 250.25 430.46, 250.38 429.58 C 250.51 428.69, 250.46 428.23, 250.03 427.69 C 249.60 427.15, 249.15 426.90, 248.23 426.87 C 247.31 426.84, 246.66 426.96, 245.42 427.53 C 244.18 428.10, 243.46 428.50, 242.03 429.71 C 240.60 430.91, 239.71 431.84, 238.26 433.55 C 236.82 435.27, 235.99 436.35, 234.80 438.29 C 233.62 440.23, 233.17 441.29, 232.33 443.25 C 231.50 445.21, 231.06 446.25, 230.64 448.07 C 230.21 449.90, 230.09 450.85, 230.21 452.37 C 230.34 453.90, 230.60 454.64, 231.27 455.71 C 231.94 456.78, 232.50 457.21, 233.57 457.74 C 234.64 458.28, 235.32 458.42, 236.62 458.38 C 237.93 458.34, 238.76 458.08, 240.11 457.53 C 241.45 456.98, 242.22 456.48, 243.34 455.63 C 244.47 454.78, 244.97 454.18, 245.74 453.30 C 246.52 452.43, 246.76 451.96, 247.20 451.25 C 247.65 450.54, 247.78 450.26, 247.99 449.77 C 248.20 449.29, 248.17 449.03, 248.27 448.84 C 248.37 448.65, 248.24 448.75, 248.50 448.83 C 248.75 448.91, 248.94 449.13, 249.54 449.24 C 250.13 449.36, 250.48 449.41, 251.46 449.42 C 252.44 449.43, 253.12 449.43, 254.45 449.29 C 255.78 449.16, 256.65 448.98, 258.10 448.75 C 259.55 448.52, 260.34 448.35, 261.70 448.15 C 263.07 447.95, 263.81 447.88, 264.95 447.75 C 266.09 447.62, 266.68 447.54, 267.40 447.49 C 268.12 447.43, 268.40 447.40, 268.57 447.47 C 268.74 447.55, 268.59 447.64, 268.27 447.86 C 267.94 448.08, 267.61 448.19, 266.95 448.57 C 266.29 448.94, 265.78 449.18, 264.98 449.73 C 264.19 450.27, 263.74 450.66, 262.97 451.30 C 262.19 451.93, 261.74 452.25, 261.11 452.88 C 260.47 453.52, 260.17 453.89, 259.80 454.46 C 259.42 455.04, 259.30 455.30, 259.24 455.78 C 259.18 456.26, 259.18 456.53, 259.49 456.86 C 259.81 457.18, 260.14 457.34, 260.82 457.40 C 261.49 457.46, 261.99 457.38, 262.88 457.14 C 263.76 456.90, 264.30 456.65, 265.24 456.18 C 266.18 455.70, 266.65 455.33, 267.58 454.75 C 268.50 454.17, 269.08 453.89, 269.86 453.29 C 270.65 452.69, 271.05 452.22, 271.48 451.76 C 271.92 451.30, 272.01 451.07, 272.03 450.99 C 272.05 450.91, 271.88 450.98, 271.58 451.36 C 271.27 451.74, 270.92 452.16, 270.53 452.87 C 270.13 453.58, 269.83 454.12, 269.61 454.91 C 269.39 455.71, 269.31 456.21, 269.43 456.84 C 269.56 457.47, 269.70 457.77, 270.23 458.06 C 270.77 458.36, 271.20 458.44, 272.11 458.33 C 273.02 458.22, 273.58 458.04, 274.77 457.51 C 275.97 456.97, 276.64 456.56, 278.08 455.66 C 279.52 454.76, 280.37 454.21, 281.96 453.01 C 283.54 451.82, 284.38 451.11, 286.01 449.69 C 287.63 448.28, 288.54 447.48, 290.09 445.94 C 291.64 444.40, 292.45 443.51, 293.76 441.99 C 295.07 440.47, 295.68 439.71, 296.64 438.34 C 297.61 436.96, 298.12 436.27, 298.58 435.13 C 299.05 433.98, 299.13 433.35, 298.97 432.63 C 298.81 431.90, 298.47 431.66, 297.77 431.53 C 297.08 431.39, 296.58 431.44, 295.48 431.93 C 294.39 432.41, 293.62 432.84, 292.29 433.93 C 290.96 435.02, 290.18 435.87, 288.84 437.36 C 287.50 438.85, 286.82 439.72, 285.60 441.38 C 284.38 443.04, 283.65 444.02, 282.74 445.66 C 281.82 447.30, 281.43 448.17, 281.02 449.57 C 280.61 450.97, 280.55 451.59, 280.69 452.67 C 280.83 453.75, 281.07 454.26, 281.72 454.97 C 282.37 455.68, 282.89 455.95, 283.92 456.24 C 284.96 456.53, 285.64 456.58, 286.90 456.42 C 288.16 456.26, 288.93 455.98, 290.23 455.46 C 291.53 454.94, 292.27 454.52, 293.40 453.81 C 294.54 453.09, 295.13 452.62, 295.91 451.90 C 296.69 451.17, 297.01 450.79, 297.32 450.19 C 297.64 449.58, 297.62 449.26, 297.48 448.88 C 297.34 448.49, 297.07 448.38, 296.63 448.26 C 296.19 448.14, 295.67 448.09, 295.26 448.26 C 294.85 448.43, 294.65 448.82, 294.58 449.11 C 294.52 449.40, 294.68 449.58, 294.91 449.71 C 295.14 449.83, 295.38 449.82, 295.73 449.74 C 296.08 449.67, 296.42 449.49, 296.67 449.34 C 296.92 449.19, 297.04 448.95, 297.00 448.99 C 296.96 449.04, 296.88 449.20, 296.48 449.57 C 296.09 449.94, 295.79 450.25, 295.02 450.82 C 294.24 451.40, 293.67 451.84, 292.59 452.47 C 291.51 453.10, 290.80 453.48, 289.62 453.98 C 288.44 454.47, 287.76 454.73, 286.67 454.93 C 285.59 455.13, 285.05 455.13, 284.20 455.00 C 283.36 454.86, 282.96 454.75, 282.47 454.26 C 281.97 453.78, 281.78 453.43, 281.73 452.57 C 281.68 451.71, 281.76 451.20, 282.22 449.97 C 282.67 448.73, 283.08 447.93, 284.01 446.40 C 284.94 444.87, 285.65 443.91, 286.86 442.33 C 288.08 440.75, 288.77 439.91, 290.08 438.50 C 291.40 437.09, 292.21 436.34, 293.43 435.28 C 294.65 434.21, 295.31 433.77, 296.17 433.18 C 297.03 432.58, 297.33 432.39, 297.74 432.29 C 298.15 432.20, 298.26 432.23, 298.21 432.70 C 298.16 433.16, 298.02 433.64, 297.49 434.61 C 296.96 435.58, 296.51 436.25, 295.54 437.54 C 294.58 438.83, 293.97 439.58, 292.67 441.04 C 291.37 442.51, 290.56 443.37, 289.03 444.86 C 287.49 446.36, 286.60 447.15, 285.00 448.52 C 283.39 449.90, 282.56 450.59, 281.00 451.73 C 279.45 452.88, 278.59 453.40, 277.21 454.25 C 275.82 455.11, 275.15 455.47, 274.07 456.02 C 272.99 456.56, 272.51 456.72, 271.81 456.97 C 271.10 457.22, 270.81 457.29, 270.54 457.27 C 270.27 457.26, 270.30 457.21, 270.46 456.87 C 270.62 456.54, 270.96 456.25, 271.32 455.60 C 271.68 454.96, 272.01 454.43, 272.27 453.64 C 272.54 452.85, 272.68 452.27, 272.65 451.66 C 272.62 451.05, 272.51 450.77, 272.13 450.59 C 271.76 450.41, 271.41 450.47, 270.78 450.75 C 270.14 451.04, 269.77 451.49, 268.96 452.02 C 268.16 452.55, 267.64 452.87, 266.75 453.40 C 265.86 453.94, 265.38 454.27, 264.51 454.68 C 263.63 455.10, 263.13 455.21, 262.37 455.47 C 261.60 455.73, 261.18 455.82, 260.69 455.98 C 260.19 456.15, 260.01 456.27, 259.89 456.29 C 259.77 456.31, 259.89 456.28, 260.07 456.07 C 260.26 455.87, 260.40 455.67, 260.81 455.25 C 261.21 454.83, 261.47 454.49, 262.10 453.96 C 262.73 453.42, 263.17 453.12, 263.94 452.56 C 264.72 452.00, 265.18 451.70, 265.97 451.16 C 266.76 450.62, 267.26 450.40, 267.88 449.85 C 268.50 449.30, 268.83 448.97, 269.05 448.41 C 269.28 447.84, 269.33 447.45, 269.01 447.03 C 268.69 446.61, 268.30 446.46, 267.46 446.33 C 266.63 446.19, 266.02 446.28, 264.83 446.34 C 263.64 446.40, 262.91 446.49, 261.51 446.64 C 260.12 446.79, 259.31 446.91, 257.87 447.09 C 256.42 447.28, 255.56 447.42, 254.27 447.55 C 252.98 447.68, 252.34 447.70, 251.41 447.76 C 250.49 447.82, 250.23 447.83, 249.64 447.86 C 249.06 447.89, 248.87 447.81, 248.48 447.90 C 248.08 448.00, 247.95 448.06, 247.66 448.33 C 247.38 448.61, 247.35 448.83, 247.06 449.27 C 246.77 449.72, 246.69 449.95, 246.22 450.57 C 245.75 451.18, 245.48 451.59, 244.72 452.35 C 243.97 453.11, 243.47 453.63, 242.43 454.38 C 241.38 455.14, 240.68 455.58, 239.50 456.11 C 238.32 456.64, 237.62 456.92, 236.53 457.04 C 235.45 457.15, 234.93 457.08, 234.07 456.70 C 233.21 456.31, 232.76 456.00, 232.23 455.12 C 231.71 454.24, 231.50 453.64, 231.45 452.29 C 231.39 450.95, 231.52 450.09, 231.96 448.40 C 232.40 446.71, 232.82 445.68, 233.65 443.83 C 234.48 441.97, 234.94 440.95, 236.12 439.11 C 237.30 437.27, 238.15 436.27, 239.55 434.65 C 240.95 433.02, 241.81 432.13, 243.12 430.98 C 244.43 429.83, 245.07 429.48, 246.11 428.89 C 247.15 428.29, 247.65 428.17, 248.31 428.02 C 248.98 427.88, 249.22 427.90, 249.44 428.17 C 249.66 428.43, 249.63 428.69, 249.40 429.35 C 249.17 430.01, 248.96 430.47, 248.30 431.46 C 247.63 432.46, 247.17 433.11, 246.09 434.32 C 245.02 435.54, 244.32 436.28, 242.92 437.55 C 241.52 438.81, 240.70 439.51, 239.08 440.65 C 237.46 441.80, 236.60 442.31, 234.80 443.27 C 233.01 444.23, 231.94 444.71, 230.11 445.45 C 228.28 446.19, 227.33 446.45, 225.64 446.95 C 223.94 447.44, 222.97 447.68, 221.64 447.94 C 220.30 448.19, 219.77 448.20, 218.96 448.24 C 218.14 448.28, 217.95 448.22, 217.57 448.13 C 217.18 448.04, 217.01 447.94, 217.02 447.77 C 217.02 447.60, 217.22 447.54, 217.59 447.29 C 217.97 447.04, 218.38 446.84, 218.88 446.51 C 219.39 446.19, 219.65 445.89, 220.12 445.65 C 220.60 445.42, 220.96 445.26, 221.26 445.33 C 221.55 445.39, 221.68 445.55, 221.61 445.96 C 221.54 446.38, 221.38 446.67, 220.90 447.39 C 220.42 448.12, 220.01 448.65, 219.21 449.61 C 218.42 450.57, 217.95 451.19, 216.94 452.19 C 215.92 453.20, 215.30 453.74, 214.15 454.62 C 213.00 455.49, 212.31 455.89, 211.19 456.57 C 210.06 457.25, 209.44 457.57, 208.54 458.01 C 207.64 458.45, 207.29 458.64, 206.69 458.78 C 206.09 458.92, 205.82 458.87, 205.55 458.72 C 205.28 458.57, 205.24 458.47, 205.34 458.03 C 205.43 457.59, 205.61 457.25, 206.02 456.52 C 206.43 455.79, 206.74 455.28, 207.39 454.37 C 208.04 453.45, 208.46 452.88, 209.27 451.94 C 210.09 451.00, 210.64 450.51, 211.45 449.65 C 212.25 448.80, 212.74 448.38, 213.28 447.67 C 213.83 446.96, 214.01 446.57, 214.15 446.11 C 214.30 445.64, 214.34 445.47, 214.03 445.35 C 213.72 445.22, 213.44 445.26, 212.59 445.48 C 211.75 445.70, 211.02 445.99, 209.79 446.45 C 208.55 446.91, 207.83 447.25, 206.41 447.78 C 204.99 448.32, 204.14 448.65, 202.68 449.13 C 201.23 449.61, 200.41 449.89, 199.12 450.18 C 197.83 450.47, 197.28 450.56, 196.24 450.58 C 195.20 450.60, 194.73 450.53, 193.92 450.28 C 193.11 450.03, 192.78 449.81, 192.17 449.33 C 191.57 448.86, 191.46 448.43, 190.89 447.91 C 190.33 447.40, 190.09 447.01, 189.36 446.77 C 188.63 446.53, 188.14 446.44, 187.24 446.72 C 186.35 447.01, 185.95 447.33, 184.88 448.20 C 183.81 449.07, 183.12 449.79, 181.90 451.07 C 180.67 452.36, 179.81 453.23, 178.75 454.62 C 177.68 456.01, 177.19 456.84, 176.58 458.01 C 175.97 459.18, 175.73 459.77, 175.70 460.47 C 175.66 461.17, 175.89 461.46, 176.43 461.52 C 176.97 461.58, 177.57 461.36, 178.40 460.76 C 179.22 460.17, 179.73 459.59, 180.57 458.56 C 181.42 457.54, 181.88 456.81, 182.62 455.65 C 183.36 454.49, 183.75 453.80, 184.26 452.75 C 184.76 451.71, 184.93 451.17, 185.13 450.44 C 185.33 449.70, 185.34 449.40, 185.27 449.09 C 185.19 448.78, 185.02 448.73, 184.76 448.90" style="stroke: black; fill: black;"/><path d="M 311.21,432.24 C 311.01 432.30, 311.05 432.40, 310.67 432.75 C 310.29 433.11, 310.02 433.23, 309.33 434.01 C 308.64 434.79, 308.20 435.34, 307.23 436.66 C 306.26 437.97, 305.63 438.90, 304.48 440.58 C 303.33 442.26, 302.65 443.26, 301.47 445.04 C 300.28 446.82, 299.61 447.85, 298.55 449.46 C 297.50 451.08, 296.90 451.83, 296.20 453.13 C 295.50 454.42, 295.18 455.08, 295.06 455.94 C 294.93 456.80, 295.03 457.14, 295.56 457.43 C 296.09 457.72, 296.62 457.71, 297.70 457.38 C 298.78 457.05, 299.52 456.64, 300.96 455.79 C 302.40 454.94, 303.34 454.28, 304.91 453.13 C 306.48 451.98, 307.41 451.21, 308.83 450.05 C 310.25 448.89, 310.90 448.27, 312.02 447.32 C 313.14 446.37, 313.73 445.90, 314.43 445.31 C 315.13 444.71, 315.36 444.49, 315.53 444.34 C 315.69 444.18, 315.52 444.23, 315.26 444.52 C 315.00 444.81, 314.66 445.10, 314.23 445.79 C 313.80 446.49, 313.50 447.00, 313.11 448.02 C 312.71 449.03, 312.51 449.69, 312.25 450.85 C 311.99 452.01, 311.85 452.69, 311.82 453.81 C 311.78 454.93, 311.84 455.50, 312.09 456.46 C 312.33 457.42, 312.55 457.89, 313.04 458.59 C 313.53 459.30, 313.82 459.61, 314.54 459.97 C 315.27 460.33, 315.72 460.40, 316.68 460.40 C 317.64 460.40, 318.22 460.35, 319.34 459.97 C 320.47 459.59, 321.11 459.26, 322.30 458.49 C 323.48 457.73, 324.09 457.13, 325.28 456.15 C 326.48 455.18, 327.12 454.62, 328.26 453.62 C 329.40 452.61, 330.09 452.04, 330.98 451.12 C 331.86 450.20, 332.27 449.59, 332.67 449.01 C 333.07 448.43, 333.07 448.21, 332.97 448.22 C 332.88 448.23, 332.61 448.41, 332.21 449.05 C 331.81 449.70, 331.45 450.20, 330.96 451.45 C 330.47 452.71, 330.20 453.63, 329.75 455.32 C 329.30 457.02, 329.14 457.95, 328.69 459.92 C 328.24 461.88, 328.08 462.92, 327.49 465.14 C 326.91 467.35, 326.57 468.55, 325.77 470.98 C 324.97 473.40, 324.56 474.74, 323.50 477.28 C 322.44 479.82, 321.82 481.17, 320.49 483.68 C 319.16 486.19, 318.39 487.53, 316.84 489.82 C 315.28 492.11, 314.40 493.27, 312.71 495.15 C 311.02 497.02, 310.05 497.86, 308.36 499.18 C 306.68 500.51, 305.77 501.05, 304.27 501.76 C 302.77 502.48, 302.02 502.68, 300.86 502.76 C 299.70 502.84, 299.17 502.70, 298.48 502.16 C 297.79 501.61, 297.57 501.13, 297.41 500.04 C 297.25 498.94, 297.24 498.20, 297.69 496.68 C 298.14 495.16, 298.74 494.15, 299.67 492.44 C 300.60 490.72, 301.39 489.60, 302.34 488.11 C 303.28 486.61, 304.09 485.67, 304.41 484.97 C 304.74 484.27, 304.62 484.14, 303.97 484.60 C 303.32 485.06, 302.34 485.85, 301.17 487.26 C 300.01 488.66, 299.13 489.79, 298.14 491.60 C 297.14 493.41, 296.59 494.57, 296.20 496.30 C 295.82 498.04, 295.89 498.95, 296.22 500.28 C 296.55 501.61, 296.93 502.24, 297.86 502.95 C 298.80 503.67, 299.52 503.87, 300.90 503.86 C 302.28 503.85, 303.13 503.62, 304.78 502.90 C 306.44 502.18, 307.39 501.61, 309.18 500.24 C 310.98 498.88, 311.98 498.02, 313.75 496.09 C 315.52 494.17, 316.43 492.98, 318.04 490.64 C 319.64 488.29, 320.40 486.91, 321.77 484.36 C 323.14 481.80, 323.80 480.44, 324.88 477.86 C 325.97 475.28, 326.39 473.91, 327.21 471.45 C 328.02 468.98, 328.35 467.76, 328.95 465.52 C 329.54 463.29, 329.71 462.23, 330.20 460.28 C 330.69 458.33, 330.91 457.44, 331.40 455.79 C 331.88 454.14, 332.24 453.30, 332.62 452.03 C 333.00 450.76, 333.21 450.24, 333.32 449.45 C 333.43 448.66, 333.44 448.32, 333.17 448.08 C 332.90 447.84, 332.62 447.87, 331.98 448.26 C 331.33 448.65, 330.88 449.19, 329.93 450.03 C 328.98 450.87, 328.37 451.47, 327.23 452.45 C 326.10 453.42, 325.44 453.98, 324.28 454.92 C 323.12 455.87, 322.52 456.44, 321.43 457.16 C 320.34 457.89, 319.79 458.17, 318.83 458.55 C 317.86 458.93, 317.37 458.99, 316.61 459.07 C 315.85 459.15, 315.54 459.17, 315.03 458.95 C 314.51 458.72, 314.38 458.49, 314.05 457.94 C 313.72 457.38, 313.54 456.98, 313.38 456.17 C 313.23 455.36, 313.18 454.87, 313.27 453.89 C 313.36 452.91, 313.53 452.30, 313.83 451.26 C 314.13 450.21, 314.42 449.63, 314.79 448.67 C 315.16 447.71, 315.43 447.24, 315.67 446.45 C 315.92 445.66, 316.06 445.25, 316.02 444.72 C 315.98 444.20, 315.91 443.92, 315.46 443.85 C 315.01 443.77, 314.64 443.88, 313.77 444.35 C 312.91 444.83, 312.33 445.34, 311.15 446.23 C 309.97 447.12, 309.32 447.73, 307.86 448.82 C 306.41 449.91, 305.45 450.60, 303.88 451.69 C 302.31 452.78, 301.35 453.37, 300.01 454.27 C 298.67 455.17, 298.02 455.64, 297.17 456.17 C 296.31 456.70, 296.00 456.92, 295.74 456.92 C 295.49 456.93, 295.58 456.82, 295.90 456.20 C 296.22 455.57, 296.57 454.99, 297.35 453.81 C 298.12 452.63, 298.70 451.87, 299.79 450.30 C 300.89 448.73, 301.59 447.70, 302.81 445.96 C 304.03 444.21, 304.73 443.22, 305.90 441.57 C 307.07 439.92, 307.73 439.02, 308.67 437.70 C 309.61 436.38, 310.01 435.84, 310.59 434.98 C 311.17 434.11, 311.35 433.87, 311.56 433.37 C 311.78 432.86, 311.73 432.66, 311.66 432.44 C 311.59 432.21, 311.41 432.18, 311.21 432.24" style="stroke: black; fill: black;"/><path d="M 373.62,444.61 C 373.36 444.75, 373.20 444.88, 372.81 445.51 C 372.42 446.14, 372.19 446.68, 371.68 447.74 C 371.18 448.81, 370.88 449.55, 370.30 450.82 C 369.72 452.09, 369.37 452.91, 368.80 454.09 C 368.24 455.27, 367.83 455.90, 367.49 456.71 C 367.16 457.52, 367.03 457.80, 367.12 458.14 C 367.21 458.49, 367.39 458.62, 367.94 458.44 C 368.49 458.25, 368.92 458.00, 369.88 457.24 C 370.85 456.47, 371.46 455.81, 372.76 454.60 C 374.06 453.38, 374.84 452.53, 376.38 451.16 C 377.93 449.80, 378.92 449.03, 380.46 447.77 C 382.00 446.51, 382.79 445.80, 384.08 444.86 C 385.37 443.93, 386.01 443.58, 386.91 443.10 C 387.81 442.62, 388.22 442.49, 388.58 442.46 C 388.94 442.43, 388.84 442.48, 388.73 442.96 C 388.63 443.43, 388.43 443.89, 388.05 444.83 C 387.68 445.76, 387.35 446.41, 386.85 447.62 C 386.35 448.83, 385.91 449.62, 385.56 450.87 C 385.20 452.13, 385.00 452.83, 385.09 453.89 C 385.18 454.94, 385.32 455.47, 386.02 456.14 C 386.73 456.81, 387.34 457.08, 388.61 457.23 C 389.89 457.37, 390.73 457.21, 392.39 456.87 C 394.04 456.53, 395.05 456.16, 396.89 455.51 C 398.73 454.86, 399.81 454.45, 401.59 453.63 C 403.38 452.80, 404.33 452.22, 405.82 451.38 C 407.31 450.54, 408.21 450.10, 409.06 449.42 C 409.90 448.73, 410.14 448.31, 410.06 447.95 C 409.98 447.59, 409.51 447.49, 408.65 447.63 C 407.80 447.78, 407.01 448.06, 405.77 448.68 C 404.52 449.30, 403.63 449.80, 402.42 450.74 C 401.21 451.67, 400.57 452.36, 399.72 453.37 C 398.87 454.37, 398.49 454.91, 398.17 455.78 C 397.85 456.65, 397.76 457.13, 398.11 457.72 C 398.45 458.30, 398.96 458.58, 399.91 458.69 C 400.86 458.80, 401.51 458.65, 402.84 458.27 C 404.17 457.88, 405.06 457.52, 406.56 456.77 C 408.06 456.02, 408.96 455.46, 410.33 454.51 C 411.69 453.57, 412.38 452.99, 413.36 452.05 C 414.34 451.11, 414.76 450.59, 415.20 449.82 C 415.65 449.04, 415.60 448.66, 415.59 448.16 C 415.58 447.67, 415.28 447.51, 415.15 447.36 C 415.02 447.22, 414.83 447.38, 414.96 447.42 C 415.09 447.47, 415.12 447.67, 415.80 447.57 C 416.48 447.47, 417.02 447.38, 418.37 446.91 C 419.71 446.44, 420.65 446.07, 422.53 445.24 C 424.40 444.41, 425.49 443.85, 427.74 442.75 C 429.99 441.65, 431.38 440.99, 433.76 439.74 C 436.14 438.49, 437.34 437.77, 439.66 436.52 C 441.98 435.28, 443.22 434.69, 445.35 433.51 C 447.47 432.33, 448.57 431.61, 450.27 430.62 C 451.97 429.63, 452.86 429.15, 453.85 428.57 C 454.84 428.00, 455.10 427.69, 455.23 427.73 C 455.36 427.76, 455.18 427.93, 454.50 428.75 C 453.82 429.57, 453.16 430.25, 451.82 431.84 C 450.48 433.44, 449.50 434.67, 447.80 436.73 C 446.10 438.79, 445.07 440.02, 443.32 442.16 C 441.56 444.30, 440.59 445.46, 439.01 447.44 C 437.44 449.41, 436.67 450.41, 435.45 452.03 C 434.24 453.66, 433.67 454.50, 432.94 455.58 C 432.20 456.65, 432.04 456.98, 431.77 457.40 C 431.50 457.81, 431.62 457.93, 431.61 457.66 C 431.59 457.38, 431.82 456.34, 431.68 456.02 C 431.53 455.70, 431.00 455.69, 430.88 456.06 C 430.77 456.43, 430.83 457.51, 431.10 457.88 C 431.36 458.24, 431.66 458.21, 432.21 457.89 C 432.76 457.57, 433.00 457.29, 433.86 456.29 C 434.73 455.29, 435.27 454.45, 436.53 452.86 C 437.79 451.28, 438.54 450.29, 440.15 448.36 C 441.75 446.43, 442.74 445.29, 444.55 443.20 C 446.36 441.11, 447.47 439.95, 449.20 437.90 C 450.94 435.85, 451.98 434.66, 453.23 432.94 C 454.47 431.22, 455.00 430.40, 455.44 429.30 C 455.88 428.20, 455.83 427.80, 455.42 427.46 C 455.02 427.12, 454.58 427.21, 453.41 427.60 C 452.25 427.99, 451.34 428.46, 449.59 429.39 C 447.83 430.32, 446.77 431.09, 444.65 432.25 C 442.53 433.42, 441.29 434.00, 438.96 435.22 C 436.64 436.43, 435.43 437.13, 433.04 438.34 C 430.65 439.55, 429.26 440.19, 427.02 441.25 C 424.77 442.30, 423.68 442.83, 421.82 443.63 C 419.97 444.42, 419.03 444.71, 417.74 445.24 C 416.44 445.77, 415.97 445.93, 415.35 446.28 C 414.72 446.64, 414.77 446.75, 414.62 447.01 C 414.48 447.28, 414.58 447.38, 414.61 447.60 C 414.65 447.82, 414.86 447.79, 414.80 448.11 C 414.73 448.43, 414.76 448.62, 414.29 449.19 C 413.81 449.77, 413.39 450.19, 412.42 450.99 C 411.44 451.78, 410.75 452.32, 409.43 453.16 C 408.10 454.00, 407.19 454.48, 405.77 455.19 C 404.35 455.90, 403.48 456.23, 402.31 456.70 C 401.13 457.16, 400.61 457.38, 399.89 457.51 C 399.17 457.64, 398.86 457.60, 398.71 457.36 C 398.56 457.11, 398.72 456.86, 399.14 456.27 C 399.56 455.68, 399.94 455.22, 400.82 454.41 C 401.69 453.59, 402.34 453.04, 403.51 452.21 C 404.68 451.39, 405.56 450.99, 406.67 450.27 C 407.78 449.55, 408.43 449.10, 409.07 448.63 C 409.70 448.16, 409.98 447.96, 409.86 447.92 C 409.74 447.88, 409.40 448.01, 408.45 448.44 C 407.50 448.86, 406.61 449.29, 405.11 450.04 C 403.60 450.79, 402.69 451.41, 400.94 452.19 C 399.19 452.97, 398.13 453.32, 396.34 453.94 C 394.56 454.56, 393.55 454.89, 392.02 455.28 C 390.49 455.67, 389.75 455.87, 388.68 455.89 C 387.62 455.92, 387.16 455.81, 386.68 455.41 C 386.20 455.01, 386.19 454.68, 386.27 453.88 C 386.35 453.08, 386.63 452.51, 387.09 451.40 C 387.55 450.29, 388.07 449.55, 388.57 448.32 C 389.06 447.10, 389.36 446.35, 389.57 445.27 C 389.78 444.18, 389.79 443.59, 389.61 442.90 C 389.43 442.21, 389.31 441.97, 388.68 441.80 C 388.04 441.63, 387.53 441.66, 386.45 442.04 C 385.37 442.42, 384.69 442.81, 383.29 443.71 C 381.90 444.61, 381.09 445.31, 379.48 446.54 C 377.87 447.77, 376.86 448.52, 375.26 449.86 C 373.66 451.20, 372.78 452.00, 371.48 453.24 C 370.17 454.47, 369.55 455.12, 368.74 456.03 C 367.93 456.94, 367.68 457.33, 367.43 457.78 C 367.17 458.23, 367.24 458.35, 367.48 458.27 C 367.71 458.18, 368.04 458.06, 368.61 457.38 C 369.17 456.70, 369.61 456.03, 370.28 454.87 C 370.95 453.71, 371.35 452.87, 371.95 451.58 C 372.56 450.29, 372.91 449.54, 373.31 448.42 C 373.72 447.30, 373.82 446.70, 373.97 445.98 C 374.13 445.26, 374.15 445.09, 374.08 444.81 C 374.00 444.54, 373.87 444.47, 373.62 444.61" style="stroke: black; fill: black;"/><path d="M 429.43,450.73 C 429.73 450.88, 430.01 450.93, 430.91 450.97 C 431.82 451.01, 432.51 451.00, 433.97 450.94 C 435.43 450.88, 436.32 450.80, 438.22 450.66 C 440.12 450.51, 441.50 450.43, 443.47 450.21 C 445.43 450.00, 446.50 449.81, 448.05 449.58 C 449.60 449.36, 450.58 449.29, 451.20 449.09 C 451.83 448.88, 451.83 448.72, 451.18 448.57 C 450.53 448.42, 449.54 448.33, 447.96 448.32 C 446.39 448.30, 445.30 448.40, 443.33 448.51 C 441.35 448.62, 439.97 448.71, 438.08 448.87 C 436.18 449.02, 435.29 449.11, 433.83 449.28 C 432.38 449.46, 431.70 449.54, 430.81 449.73 C 429.92 449.92, 429.66 450.02, 429.38 450.22 C 429.10 450.42, 429.12 450.58, 429.43 450.73" style="stroke: black; fill: black;"/><path d="M 503.97,447.55 C 504.23 447.44, 504.51 447.22, 504.72 446.76 C 504.92 446.31, 504.97 445.89, 504.98 445.29 C 505.00 444.69, 505.03 444.32, 504.79 443.77 C 504.56 443.22, 504.30 442.94, 503.79 442.56 C 503.27 442.18, 503.01 442.02, 502.22 441.87 C 501.44 441.73, 500.99 441.61, 499.85 441.84 C 498.72 442.07, 497.98 442.37, 496.55 443.04 C 495.12 443.70, 494.25 444.13, 492.70 445.18 C 491.14 446.22, 490.13 446.94, 488.77 448.24 C 487.41 449.55, 486.77 450.40, 485.91 451.69 C 485.05 452.98, 484.74 453.63, 484.46 454.68 C 484.18 455.74, 484.19 456.28, 484.52 456.98 C 484.86 457.68, 485.28 457.94, 486.11 458.20 C 486.94 458.46, 487.49 458.47, 488.67 458.27 C 489.86 458.06, 490.56 457.81, 492.02 457.16 C 493.49 456.51, 494.39 455.99, 496.00 455.02 C 497.61 454.06, 498.49 453.44, 500.07 452.34 C 501.64 451.24, 502.63 450.51, 503.86 449.52 C 505.09 448.53, 505.66 447.96, 506.22 447.39 C 506.77 446.83, 506.76 446.65, 506.64 446.70 C 506.52 446.74, 506.15 447.05, 505.62 447.63 C 505.10 448.20, 504.61 448.66, 504.00 449.57 C 503.39 450.48, 503.01 451.16, 502.55 452.19 C 502.09 453.22, 501.90 453.80, 501.70 454.72 C 501.49 455.64, 501.36 456.06, 501.52 456.80 C 501.69 457.55, 501.87 457.94, 502.51 458.45 C 503.14 458.95, 503.60 459.20, 504.70 459.32 C 505.80 459.43, 506.54 459.28, 507.99 459.02 C 509.45 458.77, 510.37 458.53, 511.99 458.03 C 513.61 457.54, 514.55 457.12, 516.09 456.54 C 517.64 455.96, 518.56 455.64, 519.71 455.14 C 520.87 454.63, 521.23 454.39, 521.87 454.03 C 522.50 453.68, 522.72 453.56, 522.90 453.37 C 523.09 453.17, 523.05 453.07, 522.78 453.05 C 522.52 453.02, 522.27 453.07, 521.56 453.23 C 520.85 453.38, 520.44 453.47, 519.23 453.83 C 518.03 454.18, 517.10 454.49, 515.55 455.01 C 514.00 455.52, 513.07 455.94, 511.50 456.41 C 509.92 456.89, 509.02 457.08, 507.67 457.38 C 506.32 457.67, 505.66 457.86, 504.75 457.91 C 503.84 457.95, 503.55 457.84, 503.11 457.59 C 502.67 457.33, 502.56 457.14, 502.53 456.65 C 502.51 456.16, 502.68 455.86, 502.99 455.12 C 503.30 454.38, 503.56 453.87, 504.08 452.95 C 504.60 452.04, 505.06 451.49, 505.59 450.55 C 506.12 449.61, 506.46 449.05, 506.72 448.26 C 506.98 447.48, 507.11 446.97, 506.90 446.64 C 506.70 446.30, 506.49 446.27, 505.69 446.60 C 504.90 446.93, 504.25 447.40, 502.94 448.28 C 501.63 449.16, 500.70 449.93, 499.14 451.00 C 497.58 452.06, 496.71 452.67, 495.15 453.60 C 493.58 454.53, 492.69 455.00, 491.33 455.65 C 489.97 456.30, 489.34 456.55, 488.34 456.86 C 487.34 457.16, 486.94 457.21, 486.33 457.17 C 485.71 457.13, 485.44 457.08, 485.27 456.65 C 485.11 456.23, 485.15 455.86, 485.51 455.04 C 485.86 454.21, 486.18 453.64, 487.06 452.51 C 487.93 451.39, 488.55 450.61, 489.87 449.42 C 491.18 448.24, 492.15 447.56, 493.63 446.59 C 495.11 445.61, 495.96 445.20, 497.27 444.55 C 498.59 443.90, 499.26 443.61, 500.22 443.33 C 501.17 443.06, 501.48 443.12, 502.05 443.16 C 502.63 443.20, 502.79 443.33, 503.09 443.53 C 503.38 443.73, 503.48 443.85, 503.53 444.18 C 503.58 444.51, 503.36 444.74, 503.32 445.19 C 503.27 445.65, 503.29 446.05, 503.31 446.48 C 503.33 446.90, 503.29 447.12, 503.42 447.34 C 503.55 447.55, 503.71 447.67, 503.97 447.55" style="stroke: black; fill: black;"/><path d="M 563.83,448.04 C 564.01 447.83, 564.13 447.54, 564.17 447.02 C 564.21 446.51, 564.16 446.11, 564.04 445.46 C 563.91 444.81, 563.83 444.43, 563.55 443.78 C 563.27 443.13, 563.09 442.73, 562.63 442.21 C 562.17 441.69, 561.86 441.49, 561.24 441.17 C 560.61 440.85, 560.27 440.69, 559.51 440.61 C 558.74 440.53, 558.31 440.57, 557.41 440.77 C 556.52 440.97, 556.00 441.13, 555.03 441.59 C 554.06 442.05, 553.51 442.33, 552.56 443.08 C 551.61 443.83, 551.05 444.38, 550.29 445.33 C 549.53 446.28, 549.17 446.86, 548.75 447.85 C 548.34 448.83, 548.27 449.30, 548.23 450.23 C 548.19 451.16, 548.22 451.67, 548.56 452.49 C 548.91 453.31, 549.20 453.71, 549.96 454.34 C 550.72 454.98, 551.29 455.30, 552.37 455.67 C 553.46 456.04, 554.11 456.15, 555.39 456.18 C 556.66 456.22, 557.38 456.08, 558.74 455.83 C 560.10 455.58, 560.86 455.37, 562.19 454.95 C 563.52 454.53, 564.21 454.25, 565.39 453.73 C 566.57 453.22, 567.13 452.89, 568.10 452.37 C 569.07 451.84, 569.52 451.59, 570.24 451.10 C 570.96 450.62, 571.34 450.38, 571.71 449.92 C 572.08 449.47, 572.13 449.09, 572.11 448.83 C 572.09 448.56, 571.85 448.50, 571.61 448.60 C 571.37 448.70, 571.22 448.86, 570.91 449.33 C 570.60 449.80, 570.39 450.11, 570.05 450.94 C 569.72 451.77, 569.58 452.35, 569.24 453.48 C 568.91 454.61, 568.81 455.29, 568.38 456.61 C 567.94 457.93, 567.64 458.60, 567.08 460.09 C 566.51 461.58, 566.28 462.46, 565.55 464.06 C 564.82 465.67, 564.36 466.50, 563.43 468.10 C 562.50 469.71, 561.97 470.56, 560.90 472.09 C 559.82 473.63, 559.19 474.47, 558.04 475.76 C 556.89 477.06, 556.24 477.66, 555.15 478.59 C 554.06 479.52, 553.43 479.91, 552.57 480.41 C 551.72 480.91, 551.38 481.05, 550.88 481.09 C 550.37 481.13, 550.22 481.01, 550.05 480.60 C 549.87 480.20, 549.87 479.87, 550.01 479.06 C 550.16 478.25, 550.27 477.73, 550.78 476.56 C 551.28 475.40, 551.60 474.69, 552.54 473.24 C 553.48 471.80, 554.08 470.94, 555.47 469.34 C 556.86 467.74, 557.68 466.88, 559.49 465.23 C 561.30 463.58, 562.44 462.69, 564.53 461.09 C 566.62 459.49, 567.79 458.67, 569.93 457.23 C 572.08 455.79, 573.17 455.12, 575.27 453.88 C 577.36 452.65, 578.51 452.07, 580.41 451.06 C 582.32 450.05, 583.26 449.62, 584.78 448.82 C 586.29 448.01, 586.94 447.61, 587.99 447.03 C 589.03 446.44, 589.41 446.28, 590.00 445.89 C 590.58 445.51, 590.74 445.38, 590.90 445.09 C 591.06 444.81, 590.92 444.69, 590.81 444.46 C 590.70 444.23, 590.66 444.11, 590.36 443.94 C 590.06 443.78, 589.83 443.64, 589.31 443.63 C 588.80 443.62, 588.52 443.66, 587.79 443.91 C 587.06 444.15, 586.60 444.32, 585.67 444.86 C 584.73 445.39, 584.12 445.74, 583.12 446.59 C 582.11 447.44, 581.53 448.03, 580.64 449.10 C 579.74 450.18, 579.25 450.84, 578.64 451.98 C 578.04 453.11, 577.79 453.72, 577.59 454.78 C 577.39 455.83, 577.37 456.41, 577.64 457.26 C 577.91 458.11, 578.25 458.51, 578.94 459.02 C 579.64 459.53, 580.15 459.68, 581.11 459.79 C 582.06 459.90, 582.65 459.82, 583.73 459.56 C 584.81 459.30, 585.49 459.05, 586.52 458.50 C 587.54 457.94, 588.06 457.56, 588.86 456.78 C 589.65 456.01, 589.97 455.54, 590.49 454.62 C 591.01 453.70, 591.26 453.18, 591.47 452.19 C 591.68 451.21, 591.63 450.59, 591.55 449.70 C 591.46 448.82, 591.27 448.40, 591.05 447.75 C 590.83 447.09, 590.63 446.81, 590.43 446.43 C 590.22 446.04, 590.06 446.00, 590.04 445.83 C 590.01 445.66, 590.02 445.66, 590.30 445.58 C 590.58 445.50, 590.77 445.53, 591.45 445.41 C 592.13 445.29, 592.64 445.19, 593.71 444.98 C 594.77 444.77, 595.44 444.65, 596.76 444.37 C 598.08 444.09, 598.89 443.88, 600.32 443.58 C 601.74 443.27, 602.54 443.11, 603.88 442.85 C 605.23 442.60, 605.99 442.50, 607.04 442.31 C 608.08 442.13, 608.58 442.07, 609.11 441.94 C 609.63 441.81, 609.71 441.68, 609.67 441.65 C 609.64 441.63, 609.43 441.54, 608.92 441.80 C 608.42 442.07, 607.94 442.37, 607.14 442.99 C 606.34 443.60, 605.90 444.06, 604.92 444.89 C 603.94 445.72, 603.31 446.20, 602.24 447.16 C 601.18 448.11, 600.51 448.69, 599.60 449.66 C 598.68 450.64, 598.28 451.13, 597.69 452.04 C 597.09 452.95, 596.82 453.41, 596.62 454.22 C 596.42 455.04, 596.41 455.49, 596.68 456.11 C 596.94 456.73, 597.27 457.02, 597.94 457.31 C 598.62 457.60, 599.07 457.66, 600.05 457.58 C 601.04 457.49, 601.65 457.35, 602.85 456.90 C 604.06 456.45, 604.74 456.09, 606.07 455.31 C 607.40 454.54, 608.22 454.01, 609.50 453.02 C 610.79 452.04, 611.49 451.40, 612.49 450.37 C 613.48 449.34, 613.86 448.82, 614.49 447.87 C 615.11 446.92, 615.34 446.39, 615.61 445.62 C 615.88 444.85, 615.86 444.55, 615.84 444.03 C 615.81 443.51, 615.66 443.26, 615.49 443.02 C 615.32 442.79, 615.13 442.74, 614.98 442.84 C 614.83 442.94, 614.63 443.32, 614.74 443.53 C 614.86 443.75, 615.27 444.08, 615.54 443.93 C 615.82 443.77, 616.16 443.08, 616.11 442.77 C 616.07 442.46, 615.59 442.36, 615.32 442.38 C 615.06 442.41, 614.89 442.71, 614.77 442.90 C 614.64 443.09, 614.69 443.12, 614.71 443.35 C 614.73 443.57, 614.90 443.65, 614.87 444.02 C 614.84 444.39, 614.84 444.58, 614.56 445.20 C 614.27 445.82, 614.05 446.30, 613.43 447.13 C 612.81 447.95, 612.45 448.41, 611.47 449.33 C 610.49 450.25, 609.78 450.82, 608.53 451.73 C 607.28 452.64, 606.49 453.15, 605.24 453.88 C 603.98 454.62, 603.34 454.95, 602.26 455.40 C 601.18 455.85, 600.64 455.96, 599.85 456.14 C 599.05 456.31, 598.74 456.34, 598.27 456.27 C 597.81 456.20, 597.65 456.11, 597.53 455.77 C 597.42 455.43, 597.45 455.15, 597.69 454.56 C 597.94 453.97, 598.16 453.57, 598.76 452.80 C 599.36 452.03, 599.76 451.60, 600.67 450.72 C 601.58 449.84, 602.25 449.30, 603.32 448.41 C 604.40 447.51, 605.05 447.05, 606.04 446.23 C 607.04 445.42, 607.56 445.05, 608.30 444.33 C 609.04 443.61, 609.41 443.20, 609.75 442.65 C 610.08 442.10, 610.10 441.90, 609.97 441.57 C 609.84 441.23, 609.73 441.11, 609.11 440.98 C 608.49 440.85, 607.97 440.84, 606.87 440.91 C 605.77 440.98, 604.99 441.12, 603.62 441.34 C 602.24 441.56, 601.44 441.73, 600.00 442.00 C 598.56 442.28, 597.76 442.46, 596.43 442.71 C 595.10 442.97, 594.43 443.05, 593.35 443.29 C 592.27 443.54, 591.75 443.65, 591.03 443.94 C 590.30 444.23, 590.07 444.37, 589.71 444.73 C 589.35 445.10, 589.27 445.35, 589.21 445.77 C 589.14 446.19, 589.26 446.35, 589.38 446.82 C 589.50 447.29, 589.64 447.53, 589.80 448.13 C 589.96 448.73, 590.10 449.07, 590.16 449.83 C 590.23 450.58, 590.28 451.08, 590.11 451.91 C 589.95 452.73, 589.77 453.18, 589.32 453.95 C 588.88 454.72, 588.60 455.12, 587.89 455.75 C 587.19 456.39, 586.71 456.66, 585.80 457.12 C 584.88 457.58, 584.25 457.78, 583.33 458.05 C 582.41 458.31, 581.94 458.44, 581.19 458.44 C 580.44 458.45, 580.08 458.38, 579.58 458.08 C 579.08 457.78, 578.84 457.56, 578.69 456.95 C 578.54 456.35, 578.59 455.91, 578.83 455.07 C 579.08 454.22, 579.31 453.69, 579.92 452.71 C 580.52 451.73, 581.01 451.12, 581.87 450.16 C 582.72 449.19, 583.27 448.65, 584.20 447.88 C 585.13 447.11, 585.69 446.80, 586.51 446.30 C 587.34 445.80, 587.75 445.62, 588.33 445.39 C 588.90 445.16, 589.03 445.21, 589.40 445.15 C 589.77 445.09, 589.93 445.17, 590.16 445.10 C 590.39 445.02, 590.48 444.86, 590.55 444.77 C 590.62 444.69, 590.72 444.63, 590.52 444.68 C 590.31 444.73, 590.15 444.77, 589.53 445.03 C 588.92 445.30, 588.51 445.46, 587.44 445.98 C 586.37 446.51, 585.71 446.89, 584.18 447.66 C 582.64 448.43, 581.69 448.83, 579.77 449.84 C 577.84 450.84, 576.68 451.42, 574.55 452.66 C 572.42 453.90, 571.31 454.57, 569.12 456.01 C 566.93 457.45, 565.74 458.25, 563.60 459.87 C 561.47 461.48, 560.31 462.39, 558.44 464.08 C 556.58 465.77, 555.74 466.65, 554.29 468.31 C 552.84 469.96, 552.18 470.83, 551.19 472.37 C 550.20 473.90, 549.82 474.66, 549.32 475.97 C 548.82 477.29, 548.69 477.93, 548.68 478.95 C 548.67 479.97, 548.83 480.47, 549.27 481.07 C 549.70 481.68, 550.08 481.89, 550.85 481.97 C 551.62 482.05, 552.08 481.94, 553.12 481.47 C 554.15 481.01, 554.82 480.60, 556.02 479.65 C 557.22 478.70, 557.90 478.07, 559.11 476.73 C 560.33 475.39, 560.99 474.53, 562.11 472.95 C 563.23 471.37, 563.75 470.50, 564.72 468.85 C 565.68 467.20, 566.17 466.34, 566.93 464.70 C 567.69 463.05, 567.92 462.15, 568.51 460.64 C 569.09 459.12, 569.40 458.45, 569.86 457.11 C 570.33 455.78, 570.46 455.09, 570.83 453.98 C 571.21 452.88, 571.43 452.40, 571.72 451.58 C 572.02 450.76, 572.23 450.45, 572.32 449.89 C 572.42 449.32, 572.34 449.04, 572.20 448.76 C 572.07 448.48, 571.91 448.43, 571.64 448.49 C 571.38 448.55, 571.31 448.76, 570.89 449.07 C 570.47 449.38, 570.23 449.61, 569.55 450.03 C 568.86 450.45, 568.41 450.69, 567.47 451.16 C 566.53 451.64, 565.98 451.94, 564.83 452.41 C 563.69 452.88, 563.02 453.12, 561.75 453.50 C 560.47 453.88, 559.73 454.09, 558.46 454.33 C 557.20 454.56, 556.54 454.69, 555.42 454.68 C 554.29 454.66, 553.76 454.54, 552.83 454.26 C 551.90 453.98, 551.42 453.72, 550.78 453.28 C 550.15 452.83, 549.92 452.61, 549.65 452.02 C 549.38 451.43, 549.37 451.03, 549.44 450.31 C 549.51 449.59, 549.58 449.21, 549.99 448.41 C 550.39 447.62, 550.77 447.14, 551.49 446.32 C 552.20 445.50, 552.70 444.99, 553.54 444.32 C 554.38 443.65, 554.86 443.40, 555.71 442.98 C 556.55 442.55, 557.03 442.42, 557.77 442.21 C 558.51 442.01, 558.83 441.93, 559.41 441.95 C 559.98 441.97, 560.21 442.10, 560.65 442.32 C 561.08 442.54, 561.30 442.66, 561.58 443.06 C 561.86 443.46, 561.90 443.77, 562.06 444.33 C 562.23 444.88, 562.25 445.25, 562.40 445.83 C 562.56 446.40, 562.65 446.75, 562.82 447.20 C 562.98 447.65, 563.04 447.90, 563.24 448.06 C 563.44 448.23, 563.64 448.25, 563.83 448.04" style="stroke: black; fill: black;"/><path d="M 638.79,450.11 C 639.02 450.02, 639.21 449.87, 639.38 449.48 C 639.56 449.10, 639.66 448.75, 639.64 448.18 C 639.62 447.61, 639.57 447.20, 639.28 446.64 C 638.98 446.08, 638.69 445.79, 638.17 445.38 C 637.65 444.97, 637.39 444.80, 636.69 444.57 C 635.99 444.33, 635.54 444.19, 634.66 444.21 C 633.78 444.23, 633.26 444.29, 632.30 444.66 C 631.34 445.03, 630.78 445.38, 629.87 446.05 C 628.96 446.73, 628.47 447.21, 627.74 448.03 C 627.01 448.85, 626.67 449.32, 626.22 450.16 C 625.77 451.00, 625.58 451.50, 625.48 452.23 C 625.38 452.96, 625.37 453.32, 625.73 453.82 C 626.09 454.32, 626.46 454.61, 627.28 454.73 C 628.10 454.86, 628.66 454.81, 629.81 454.43 C 630.97 454.05, 631.60 453.70, 633.05 452.83 C 634.49 451.96, 635.39 451.37, 637.04 450.08 C 638.69 448.78, 639.62 448.01, 641.30 446.36 C 642.99 444.72, 643.88 443.69, 645.46 441.85 C 647.04 440.01, 647.83 439.00, 649.22 437.15 C 650.60 435.29, 651.25 434.33, 652.38 432.57 C 653.51 430.81, 654.03 429.87, 654.85 428.34 C 655.68 426.82, 656.05 426.09, 656.51 424.96 C 656.97 423.83, 657.11 423.36, 657.16 422.71 C 657.21 422.06, 657.12 421.80, 656.77 421.71 C 656.43 421.63, 656.05 421.71, 655.42 422.30 C 654.80 422.89, 654.41 423.42, 653.66 424.66 C 652.91 425.90, 652.49 426.79, 651.69 428.49 C 650.88 430.20, 650.41 431.20, 649.63 433.18 C 648.85 435.16, 648.45 436.32, 647.78 438.38 C 647.11 440.43, 646.79 441.49, 646.30 443.46 C 645.81 445.42, 645.54 446.41, 645.33 448.21 C 645.12 450.01, 645.16 450.94, 645.23 452.47 C 645.29 454.00, 645.40 454.70, 645.66 455.87 C 645.91 457.05, 646.04 457.60, 646.51 458.35 C 646.99 459.10, 647.67 459.44, 648.05 459.63 C 648.43 459.81, 648.55 459.62, 648.42 459.27 C 648.29 458.92, 647.71 458.60, 647.40 457.87 C 647.08 457.15, 647.03 456.74, 646.86 455.65 C 646.69 454.56, 646.58 453.88, 646.55 452.42 C 646.51 450.97, 646.46 450.10, 646.68 448.38 C 646.91 446.65, 647.17 445.72, 647.68 443.81 C 648.19 441.91, 648.53 440.86, 649.22 438.86 C 649.91 436.85, 650.32 435.71, 651.13 433.79 C 651.94 431.87, 652.44 430.91, 653.26 429.25 C 654.07 427.60, 654.58 426.76, 655.21 425.52 C 655.85 424.28, 656.12 423.74, 656.43 423.03 C 656.75 422.32, 656.81 422.10, 656.80 421.99 C 656.79 421.88, 656.65 421.99, 656.37 422.48 C 656.09 422.97, 655.93 423.40, 655.39 424.44 C 654.85 425.48, 654.51 426.21, 653.67 427.69 C 652.83 429.16, 652.33 430.10, 651.21 431.82 C 650.09 433.53, 649.44 434.47, 648.06 436.28 C 646.69 438.09, 645.88 439.06, 644.31 440.85 C 642.74 442.64, 641.86 443.64, 640.20 445.22 C 638.54 446.81, 637.63 447.54, 636.03 448.78 C 634.42 450.02, 633.53 450.57, 632.18 451.41 C 630.83 452.26, 630.24 452.57, 629.27 453.00 C 628.30 453.43, 627.90 453.48, 627.33 453.55 C 626.75 453.61, 626.55 453.54, 626.40 453.34 C 626.25 453.13, 626.37 453.00, 626.58 452.51 C 626.79 452.02, 626.98 451.58, 627.44 450.89 C 627.90 450.20, 628.19 449.77, 628.87 449.06 C 629.54 448.35, 630.02 447.93, 630.82 447.33 C 631.62 446.74, 632.09 446.41, 632.87 446.08 C 633.65 445.75, 634.03 445.71, 634.71 445.68 C 635.39 445.64, 635.75 445.76, 636.27 445.91 C 636.79 446.06, 636.98 446.16, 637.31 446.43 C 637.63 446.71, 637.75 446.91, 637.89 447.28 C 638.03 447.65, 637.96 447.88, 637.99 448.28 C 638.03 448.67, 638.01 448.93, 638.06 449.26 C 638.11 449.59, 638.09 449.77, 638.24 449.94 C 638.38 450.11, 638.56 450.20, 638.79 450.11" style="stroke: black; fill: black;"/><path d="M 695.06,447.11 C 694.99 447.26, 695.02 447.33, 695.06 447.54 C 695.11 447.74, 695.28 447.76, 695.29 448.15 C 695.30 448.54, 695.29 448.74, 695.12 449.48 C 694.96 450.22, 694.79 450.80, 694.46 451.86 C 694.14 452.92, 693.86 453.65, 693.50 454.77 C 693.14 455.89, 692.92 456.54, 692.65 457.47 C 692.39 458.40, 692.23 458.81, 692.16 459.42 C 692.09 460.02, 692.20 460.25, 692.30 460.49 C 692.40 460.73, 692.58 460.61, 692.66 460.61 C 692.74 460.62, 692.68 460.53, 692.70 460.51 C 692.73 460.49, 692.66 460.66, 692.77 460.50 C 692.88 460.35, 693.00 460.24, 693.25 459.73 C 693.51 459.23, 693.67 458.85, 694.05 457.97 C 694.42 457.09, 694.70 456.47, 695.13 455.35 C 695.56 454.23, 695.86 453.50, 696.20 452.38 C 696.53 451.26, 696.69 450.66, 696.79 449.76 C 696.90 448.86, 696.89 448.47, 696.72 447.89 C 696.56 447.31, 696.24 447.11, 695.98 446.88 C 695.71 446.65, 695.57 446.71, 695.39 446.75 C 695.20 446.80, 695.12 446.95, 695.06 447.11" style="stroke: black; fill: black;"/><path d="M 704.30,431.06 C 704.33 430.92, 704.31 430.91, 704.25 431.04 C 704.20 431.17, 704.05 431.57, 704.01 431.71 C 703.97 431.84, 704.00 431.85, 704.06 431.72 C 704.11 431.59, 704.26 431.19, 704.30 431.06" style="stroke: black; fill: black;"/><path d="M 717.61,448.46 C 717.65 448.23, 717.59 448.04, 717.33 447.71 C 717.07 447.38, 716.93 447.05, 716.33 446.81 C 715.72 446.57, 715.29 446.42, 714.29 446.51 C 713.30 446.61, 712.62 446.76, 711.34 447.28 C 710.06 447.80, 709.21 448.24, 707.88 449.10 C 706.55 449.97, 705.85 450.53, 704.70 451.59 C 703.54 452.66, 702.92 453.27, 702.11 454.43 C 701.30 455.59, 700.98 456.33, 700.65 457.40 C 700.33 458.46, 700.31 458.93, 700.49 459.73 C 700.68 460.53, 700.89 460.96, 701.57 461.40 C 702.26 461.84, 702.76 462.04, 703.90 461.93 C 705.04 461.83, 705.79 461.56, 707.26 460.87 C 708.73 460.19, 709.55 459.70, 711.25 458.49 C 712.95 457.28, 713.95 456.49, 715.76 454.82 C 717.56 453.16, 718.52 452.10, 720.28 450.15 C 722.05 448.21, 722.96 447.07, 724.57 445.10 C 726.18 443.12, 727.00 442.09, 728.32 440.29 C 729.65 438.49, 730.28 437.60, 731.19 436.09 C 732.09 434.57, 732.50 433.75, 732.86 432.72 C 733.21 431.70, 733.25 431.23, 732.96 430.97 C 732.66 430.70, 732.20 430.76, 731.37 431.40 C 730.53 432.03, 729.90 432.70, 728.77 434.14 C 727.65 435.58, 727.02 436.65, 725.75 438.59 C 724.48 440.54, 723.67 441.76, 722.42 443.86 C 721.16 445.95, 720.49 447.09, 719.49 449.08 C 718.48 451.07, 717.97 452.10, 717.39 453.81 C 716.81 455.52, 716.59 456.34, 716.58 457.64 C 716.58 458.93, 716.75 459.51, 717.38 460.30 C 718.01 461.08, 718.55 461.34, 719.75 461.55 C 720.95 461.77, 721.81 461.68, 723.39 461.37 C 724.97 461.05, 725.87 460.72, 727.64 459.97 C 729.40 459.22, 730.35 458.68, 732.22 457.61 C 734.09 456.53, 735.22 455.84, 736.97 454.59 C 738.72 453.35, 739.61 452.58, 740.96 451.39 C 742.30 450.19, 742.96 449.62, 743.69 448.64 C 744.43 447.65, 744.71 447.09, 744.61 446.48 C 744.52 445.86, 744.05 445.59, 743.20 445.56 C 742.35 445.52, 741.59 445.75, 740.37 446.31 C 739.14 446.88, 738.40 447.36, 737.09 448.37 C 735.78 449.37, 734.96 450.08, 733.82 451.33 C 732.67 452.59, 732.03 453.35, 731.38 454.63 C 730.72 455.92, 730.47 456.65, 730.54 457.77 C 730.60 458.88, 730.84 459.45, 731.68 460.20 C 732.52 460.95, 733.26 461.24, 734.74 461.51 C 736.21 461.77, 737.17 461.79, 739.05 461.52 C 740.93 461.25, 742.05 460.85, 744.13 460.15 C 746.21 459.45, 747.38 458.96, 749.45 458.02 C 751.52 457.09, 752.60 456.54, 754.48 455.47 C 756.36 454.40, 757.35 453.74, 758.85 452.69 C 760.35 451.63, 761.07 451.09, 761.96 450.18 C 762.84 449.27, 763.17 448.78, 763.28 448.15 C 763.38 447.51, 763.13 447.22, 762.50 446.99 C 761.87 446.77, 761.25 446.74, 760.13 447.03 C 759.01 447.32, 758.22 447.70, 756.91 448.45 C 755.60 449.19, 754.80 449.78, 753.58 450.76 C 752.36 451.74, 751.72 452.33, 750.82 453.35 C 749.92 454.36, 749.52 454.94, 749.07 455.83 C 748.62 456.72, 748.47 457.10, 748.59 457.81 C 748.71 458.52, 748.99 458.95, 749.67 459.36 C 750.36 459.77, 750.91 459.90, 752.00 459.88 C 753.09 459.86, 753.75 459.70, 755.11 459.27 C 756.47 458.85, 757.29 458.48, 758.79 457.76 C 760.30 457.03, 761.17 456.55, 762.63 455.65 C 764.08 454.76, 764.92 454.18, 766.05 453.30 C 767.17 452.42, 767.70 451.88, 768.25 451.26 C 768.81 450.63, 768.89 450.33, 768.83 450.16 C 768.76 449.99, 768.46 450.05, 767.95 450.41 C 767.44 450.77, 766.87 451.15, 766.29 451.97 C 765.70 452.80, 765.35 453.51, 765.02 454.54 C 764.68 455.58, 764.58 456.16, 764.60 457.15 C 764.61 458.14, 764.66 458.66, 765.09 459.50 C 765.51 460.33, 765.85 460.81, 766.74 461.33 C 767.63 461.84, 768.27 461.99, 769.53 462.08 C 770.79 462.16, 771.56 462.06, 773.04 461.77 C 774.52 461.49, 775.41 461.24, 776.93 460.66 C 778.45 460.08, 779.27 459.59, 780.65 458.88 C 782.03 458.18, 782.79 457.78, 783.85 457.11 C 784.90 456.45, 785.31 456.07, 785.92 455.57 C 786.53 455.07, 786.60 454.89, 786.91 454.60 C 787.22 454.30, 787.38 454.25, 787.45 454.09 C 787.53 453.93, 787.48 453.81, 787.29 453.79 C 787.10 453.77, 786.91 453.82, 786.51 453.99 C 786.11 454.16, 785.96 454.27, 785.29 454.65 C 784.61 455.03, 784.21 455.34, 783.14 455.91 C 782.08 456.48, 781.32 456.85, 779.96 457.50 C 778.61 458.15, 777.82 458.62, 776.37 459.16 C 774.92 459.70, 774.08 459.92, 772.72 460.21 C 771.37 460.50, 770.66 460.60, 769.58 460.61 C 768.51 460.61, 768.02 460.54, 767.33 460.22 C 766.65 459.89, 766.43 459.58, 766.15 458.97 C 765.88 458.37, 765.85 457.98, 765.95 457.21 C 766.05 456.45, 766.28 456.02, 766.66 455.17 C 767.05 454.32, 767.44 453.77, 767.87 452.95 C 768.30 452.12, 768.62 451.62, 768.81 451.04 C 768.99 450.45, 769.04 450.14, 768.79 450.01 C 768.54 449.89, 768.29 449.99, 767.56 450.40 C 766.83 450.82, 766.31 451.31, 765.16 452.08 C 764.01 452.85, 763.21 453.43, 761.79 454.27 C 760.37 455.10, 759.51 455.57, 758.07 456.26 C 756.64 456.95, 755.83 457.28, 754.59 457.71 C 753.36 458.15, 752.78 458.29, 751.88 458.43 C 750.99 458.58, 750.61 458.57, 750.12 458.43 C 749.62 458.28, 749.42 458.11, 749.42 457.71 C 749.41 457.31, 749.58 457.10, 750.08 456.43 C 750.57 455.77, 750.98 455.24, 751.88 454.37 C 752.79 453.50, 753.41 452.96, 754.60 452.09 C 755.79 451.23, 756.63 450.77, 757.84 450.04 C 759.06 449.32, 759.75 448.93, 760.66 448.47 C 761.58 448.00, 762.01 447.83, 762.42 447.73 C 762.82 447.62, 762.94 447.61, 762.69 447.92 C 762.43 448.23, 762.07 448.56, 761.15 449.28 C 760.22 450.00, 759.53 450.54, 758.05 451.52 C 756.57 452.50, 755.60 453.16, 753.75 454.18 C 751.91 455.20, 750.85 455.72, 748.82 456.61 C 746.80 457.50, 745.62 457.95, 743.62 458.62 C 741.61 459.29, 740.54 459.64, 738.80 459.94 C 737.07 460.24, 736.22 460.22, 734.93 460.11 C 733.64 459.99, 733.02 459.85, 732.34 459.38 C 731.67 458.91, 731.52 458.57, 731.57 457.76 C 731.62 456.95, 731.90 456.38, 732.58 455.32 C 733.27 454.27, 733.88 453.57, 735.00 452.46 C 736.12 451.36, 736.95 450.73, 738.18 449.78 C 739.41 448.83, 740.10 448.39, 741.13 447.73 C 742.17 447.08, 742.76 446.75, 743.35 446.50 C 743.94 446.24, 744.19 446.20, 744.08 446.47 C 743.98 446.75, 743.64 447.10, 742.82 447.87 C 742.01 448.63, 741.37 449.20, 740.02 450.28 C 738.67 451.37, 737.79 452.12, 736.07 453.31 C 734.35 454.50, 733.24 455.18, 731.42 456.22 C 729.61 457.26, 728.68 457.78, 727.01 458.50 C 725.33 459.23, 724.47 459.49, 723.05 459.86 C 721.62 460.23, 720.88 460.38, 719.88 460.35 C 718.88 460.33, 718.51 460.27, 718.06 459.74 C 717.62 459.20, 717.55 458.78, 717.67 457.69 C 717.78 456.60, 718.01 455.85, 718.63 454.26 C 719.26 452.68, 719.76 451.67, 720.79 449.76 C 721.83 447.85, 722.51 446.74, 723.80 444.71 C 725.09 442.68, 725.98 441.50, 727.26 439.59 C 728.54 437.68, 729.21 436.66, 730.20 435.17 C 731.18 433.68, 731.67 432.97, 732.18 432.16 C 732.70 431.35, 732.84 431.09, 732.79 431.11 C 732.74 431.13, 732.47 431.42, 731.92 432.27 C 731.37 433.13, 731.00 433.94, 730.05 435.38 C 729.11 436.81, 728.52 437.69, 727.20 439.45 C 725.87 441.20, 725.03 442.22, 723.42 444.15 C 721.80 446.08, 720.88 447.20, 719.13 449.10 C 717.38 451.00, 716.44 452.03, 714.67 453.64 C 712.90 455.25, 711.92 456.00, 710.30 457.16 C 708.67 458.32, 707.87 458.75, 706.55 459.44 C 705.23 460.12, 704.58 460.37, 703.68 460.60 C 702.78 460.83, 702.49 460.78, 702.05 460.58 C 701.60 460.37, 701.49 460.12, 701.45 459.57 C 701.41 459.02, 701.47 458.68, 701.83 457.82 C 702.20 456.96, 702.49 456.29, 703.27 455.27 C 704.04 454.26, 704.62 453.69, 705.72 452.74 C 706.83 451.79, 707.53 451.31, 708.79 450.53 C 710.04 449.76, 710.86 449.38, 712.01 448.89 C 713.16 448.40, 713.74 448.23, 714.52 448.06 C 715.30 447.90, 715.50 447.97, 715.90 448.07 C 716.30 448.17, 716.26 448.41, 716.51 448.57 C 716.76 448.72, 716.95 448.88, 717.17 448.86 C 717.39 448.84, 717.58 448.69, 717.61 448.46" style="stroke: black; fill: black;"/><path d="M 796.47,468.13 C 796.69 468.13, 796.92 468.10, 796.99 467.94 C 797.07 467.79, 797.06 467.55, 796.87 467.38 C 796.67 467.21, 796.28 467.07, 796.01 467.09 C 795.75 467.11, 795.58 467.31, 795.56 467.49 C 795.53 467.67, 795.71 467.84, 795.89 467.97 C 796.07 468.09, 796.25 468.14, 796.47 468.13" style="stroke: black; fill: black;"/></svg>